#!OML:ASF E:\Style4\Style4.ASF
:FULLY-SPECIFIED
:DEGREES
2461
root 0.109531 17.335 -1.56434 -1.37436 -0.828793 2.33478
lowerback 9.41182 2.32516 -0.411199
upperback 4.10552 3.05464 0.426644
thorax -1.05824 1.51727 0.360877
lowerneck -3.18995 -5.08439 -6.03346
upperneck 13.5589 -6.68367 2.36827
head 4.88139 -3.43214 1.35879
rclavicle -3.56818e-014 7.15625e-015
rhumerus 18.4275 23.5599 -62.3037
rradius 62.2193
rwrist 21.3326
rhand -38.3311 34.9142
rfingers 7.12502
rthumb -11.3586 5.24177
lclavicle -3.56818e-014 7.15625e-015
lhumerus 20.1169 -32.5289 61.9663
lradius 66.5379
lwrist -20.5698
lhand -32.9037 27.8006
lfingers 7.12502
lthumb -6.12127 57.6922
rfemur -18.2916 1.81788 15.5467
rtibia 43.2431
rfoot -21.912 -11.1895
rtoes -13.6493
lfemur -16.9711 -0.873306 -21.4726
ltibia 41.4102
lfoot -22.5846 7.06125
ltoes -14.3726
2462
root 0.110148 17.3233 -1.58742 -1.41822 -0.850912 2.36127
lowerback 9.3871 2.36519 -0.441797
upperback 4.14171 3.10533 0.435413
thorax -1.00983 1.54212 0.383876
lowerneck -3.23203 -5.11291 -6.03051
upperneck 13.3569 -6.71905 2.38188
head 4.82807 -3.44719 1.36139
rclavicle 9.54166e-015 1.66979e-014
rhumerus 21.1876 22.8806 -61.8416
rradius 58.4906
rwrist 21.5626
rhand -38.0402 34.4644
rfingers 7.12502
rthumb -11.078 4.77679
lclavicle 9.54166e-015 1.66979e-014
lhumerus 22.809 -31.9942 61.6901
lradius 63.1892
lwrist -20.3795
lhand -33.5197 27.8695
lfingers 7.12502
lthumb -6.71594 57.743
rfemur -18.5106 1.80832 15.5078
rtibia 43.5534
rfoot -22.0222 -11.091
rtoes -13.2869
lfemur -17.1616 -0.820385 -21.4962
ltibia 41.6877
lfoot -22.5289 7.05626
ltoes -14.7883
2463
root 0.111626 17.3116 -1.60724 -1.50758 -0.886931 2.44602
lowerback 9.43845 2.38372 -0.5484
upperback 4.15678 3.12034 0.429151
thorax -1.02774 1.54852 0.433572
lowerneck -3.22379 -5.10615 -6.05547
upperneck 13.1874 -6.71359 2.43801
head 4.77692 -3.4419 1.38502
rclavicle 4.57205e-015 1.98785e-014
rhumerus 23.7111 22.3073 -61.5909
rradius 54.9031
rwrist 21.6925
rhand -37.9541 33.8945
rfingers 7.12502
rthumb -10.995 4.20247
lclavicle 4.57205e-015 1.98785e-014
lhumerus 25.1576 -31.4497 61.5468
lradius 59.9793
lwrist -20.595
lhand -33.8443 28.2544
lfingers 7.12502
lthumb -7.02927 58.1177
rfemur -18.6532 1.80132 15.3962
rtibia 43.8353
rfoot -22.0703 -10.9818
rtoes -12.8315
lfemur -17.2782 -0.769993 -21.5956
ltibia 41.9432
lfoot -22.4302 7.09431
ltoes -15.3064
2464
root 0.114032 17.3 -1.6292 -1.60475 -0.931408 2.50318
lowerback 9.54328 2.39748 -0.66648
upperback 4.17021 3.12812 0.459682
thorax -1.07921 1.55093 0.525856
lowerneck -3.29241 -5.10542 -6.05223
upperneck 13.0832 -6.70516 2.4185
head 4.75528 -3.4377 1.37826
rclavicle 2.09718e-014 -1.23246e-014
rhumerus 26.0985 21.8397 -61.36
rradius 51.3786
rwrist 21.0213
rhand -37.855 34.5179
rfingers 7.12502
rthumb -10.8994 4.82079
lclavicle 2.09718e-014 -1.23246e-014
lhumerus 27.2849 -30.7951 61.5793
lradius 56.8696
lwrist -20.9892
lhand -33.7089 28.4884
lfingers 7.12502
lthumb -6.89853 58.356
rfemur -18.7758 1.80144 15.3133
rtibia 44.0781
rfoot -22.0812 -10.9288
rtoes -12.7344
lfemur -17.3903 -0.708579 -21.6702
ltibia 42.1999
lfoot -22.5708 7.12104
ltoes -15.1691
2465
root 0.115152 17.2874 -1.65139 -1.66892 -0.962102 2.44797
lowerback 9.66625 2.41819 -0.649421
upperback 4.16325 3.15671 0.494669
thorax -1.15521 1.56516 0.543702
lowerneck -3.42981 -5.13591 -5.99258
upperneck 13.0224 -6.73824 2.38515
head 4.75787 -3.45156 1.35341
rclavicle 5.13858e-014 -1.59028e-014
rhumerus 28.2689 21.3028 -61.2606
rradius 48.0227
rwrist 20.3434
rhand -37.5011 35.3063
rfingers 7.12502
rthumb -10.5581 5.59147
lclavicle 5.13858e-014 -1.59028e-014
lhumerus 29.2923 -30.0445 61.8053
lradius 53.7907
lwrist -21.5582
lhand -33.3921 28.0966
lfingers 7.12502
lthumb -6.59279 57.974
rfemur -18.9093 1.77443 15.3748
rtibia 44.2754
rfoot -22.0731 -10.9849
rtoes -12.964
lfemur -17.5496 -0.66192 -21.6117
ltibia 42.4677
lfoot -22.7309 7.07373
ltoes -14.8592
